<svg xmlns="http://www.w3.org/2000/svg" viewBox="0 0 199.3 132.2"><style>.st0{fill:#fff}.st16{fill:#5cccae}.st18{fill:#ff6c6c}.st19{fill:#e85858}.st21{fill:#e0bb94}.st23{fill:#ffc7b6}.st24{fill:#ffe1cc}.st26{fill:#b77742}.st28{opacity:.5}.st30{fill:#f2f2f2}.st31{fill:#ff8f8f}.st33{fill:#e2e2e2}</style><g id="Layer_1"><path class="st18" d="M187.2 127.4c3.1-3.4 6.2-6.7 9.2-10.2-2.2-6.7-6.6-15.9-15.1-26.7-4.2-5.2-8.6-9.9-13.7-12-5.5 3.8-2 31.8-2 31.8l6.6 2.4 14.4 14.6.6.1z"/><path class="st18" d="M172.2 132.2c-1.1-15.6-2.9-33.3-2.9-33.3l-1.8-20.4-41.7 6.2-18.6-6.3v32.7s.4 10.3.6 21.2h64.4z"/><path class="st19" d="M171.9 132.2l-1.1-18.2s-2.5-12.7-2.9-13.3c-.3-.4.8 19.5 1.4 31.5h2.6z"/><path d="M146.9 68v-6.8l-9.5 6.8-9.5-6.8V68c0 2.9-3 2.9-3 2.9l12.4 12.4 12.4-12.4c.2 0-2.8 0-2.8-2.9z" fill="#f4d6b0"/><path class="st21" d="M146.9 61.3l-9.5 6.8-9.5-6.8v7c5.2 2.3 9.5 2.5 9.5 2.5s4.3-.2 9.5-2.5v-7z"/><path class="st18" d="M137.5 93.8c12.4 0 23.3-6 30.1-15.2l-16.2-7h-1.5l-4 4.5c-4.5 5-12.3 5-16.8 0l-4-4.5h-1.5l-16.3 6.8c6.7 9.3 17.7 15.4 30.2 15.4"/><path d="M149.2 70l-4 3.8c-4.3 4.1-11.1 4.1-15.4 0l-4-3.8-2.2 1.5 4.5 4.6c5.2 5.2 13.6 5.2 18.8 0l4.5-4.6-2.2-1.5z" fill="#ed6464"/><ellipse class="st23" cx="113.5" cy="37.2" rx="6.5" ry="7.5"/><ellipse class="st23" cx="161.4" cy="37.2" rx="6.5" ry="7.5"/><path class="st24" d="M121.2 13.9c-4.3 0-7.7 3.5-7.7 7.7v24.1c0 3.7 10.9 22.3 23.6 23.3 9.4.7 24.3-17.3 24.3-23.3V21.6c0-7.9.1-7.7-7.7-7.7h-32.5z"/><path d="M130.8 38.2c-.4 0-.8-.3-.8-.7-.1-.8-1.1-2.4-3.6-2.4-3.2 0-3.8 2.2-3.9 2.3-.1.4-.6.7-1 .6-.5-.1-.7-.6-.6-1 .3-1.2 1.9-3.5 5.5-3.5 3.2 0 5 2 5.3 3.9.1.5-.2.9-.7 1-.1-.2-.1-.2-.2-.2zm13.2 0h-.1c-.5-.1-.8-.5-.7-1 .3-1.9 2.1-3.9 5.3-3.9 3.6 0 5.2 2.3 5.5 3.5.1.5-.2.9-.6 1-.5.1-.9-.2-1-.6 0-.1-.7-2.3-3.9-2.3-2.5 0-3.5 1.6-3.6 2.4-.1.6-.5.9-.9.9z" fill="#5c5d64"/><path class="st23" d="M143.5 44.3c0-.7-.9-1.3-2-1.7-1.3-.6-2.4-1.5-3.3-2.5-.7-.8-1.3-.7-1.9.1-.8 1.1-2 1.9-3.2 2.5-1 .4-1.8 1-1.8 1.7 0 1.3 1 2.4 2.4 2.5.6 1.4 2.1 2.4 3.7 2.4s3.1-1 3.7-2.4c1.3-.2 2.4-1.3 2.4-2.6z"/><path class="st26" d="M131.2 29.4h-.2c-.1 0-6.3-1.5-10 .7-.4.3-.9-.1-1.2-.7-.2-.6-.1-1.4.4-1.6 4.1-2.5 10.6-1 10.9-.9.5.1.8.8.8 1.4 0 .7-.3 1.1-.7 1.1zm12.2 0h.2c.1 0 6.3-1.5 10 .7.4.3.9-.1 1.2-.7.2-.6.1-1.4-.4-1.6-4.1-2.5-10.6-1-10.9-.9-.5.1-.8.8-.8 1.4 0 .7.3 1.1.7 1.1z"/><path d="M137.5 56c-3.8 0-6.5-2-6.6-2-.4-.3-.5-.8-.2-1.2.3-.4.8-.5 1.2-.2.2.2 5.2 3.7 11 0 .4-.3.9-.1 1.2.2.3.4.1.9-.2 1.2-2.3 1.5-4.5 2-6.4 2z" fill="#dc9b80"/><path class="st23" d="M137.2 44.9c-1.7 0-3-1.4-3-3v-5c0-1.7 1.4-3 3-3 1.7 0 3 1.4 3 3v5c0 1.7-1.3 3-3 3z"/><path class="st26" d="M160.8 13.7c-.4-.7-.7-1.3-1.2-2-4.3-5.9-12.2-8.9-20.1-9.3-9 .9 0-2.2-1.5-2.4-11.4-1.6-22.6 9.7-22.6 9.7-.5.7-.9 1.4-1.3 2.2-2.2 4-2.3 9.4-2.3 14.2 0 3.5.4 6.8 1.5 9.9 2.7.7 2.6-4.1 3.3-6.3.3-.8.5-1.7.7-2.5 1.3-3.1 2.9-2.7 4-4.4 1.4-2.1-4-8.5-4-8.5l3.6 2.6c2.2-.1 3.6 0 6.9.9 2.6.7 9.1 5.7 17.9 5.8.3-.2-6.5-4.7-6.3-4.9 10.7 3.4 16.3 5.5 17.5 7.3.6 3.7-.5 11.9 4.2 10 1-2.8 1.2-5.8 1.2-8.9.3-4.2.5-9.7-1.5-13.4z"/><path class="st26" d="M136 2.6s5.8-1.9 12.6-1.1c6.8.7-3.7.9-3.1 4m11.2 42.2c-1.7 3.4-4.7 6.7-9 6.5-2.1-.1.4-3.1-1.8-4.4-1.6-.9-15.6-.9-17.2 0-2.2 1.3.4 4.2-1.8 4.4-4.3.2-7.3-3.1-9-6.5-1.6-3.2-4.8-4.4-4.8-4.4s0 6.5 3.4 11.6c5.2 7.6 12.1 11.8 16.5 13.8.4.2.8.4 1.3.5 1 .3 1.9.4 2.9.4s2-.1 2.9-.4c.4-.1.9-.3 1.3-.5 4.4-2 11.4-6.2 16.5-13.8 3.5-5.1 3.4-11.6 3.4-11.6s-3 1.2-4.6 4.4zm-12 9.9c0 .6-2.7 2.5-5.4 2.5 0 0-.2-.3-.4-1.4-.1-.4-.3-.6-.6-.7-1-.3-2.3-.2-2.4.8-.2 1.1-.4 1.4-.4 1.4-2.7-.1-5.4-2-5.4-2.5 0-.6-.1-4.9 0-6.1.1-.8 6.5-.1 7.3-.2.8.1 7.2-.6 7.3.2.1 1.1 0 5.4 0 6z"/><g class="st28"><path class="st0" d="M119.9 31.7c-1.4.1-2.6 1.2-2.7 2.6 0 .5-.1 1.1 0 1.8 0 1.4.1 3 .3 4.2.1 1.4 1.4 2.5 2.9 2.5l10.5-.2c1.6 0 2.8-1.2 2.8-2.7v-5.1s-.2-2.9-5.2-3.2c-3.1-.2-6.5 0-8.6.1z"/></g><g class="st28"><path class="st0" d="M154.7 31.7c1.4.1 2.6 1.2 2.7 2.6 0 .5.1 1.1 0 1.8 0 1.4-.1 3-.3 4.2-.1 1.4-1.4 2.5-2.9 2.5l-10.5-.2c-1.6 0-2.8-1.2-2.8-2.7v-5.1s.2-2.9 5.2-3.2c3.1-.2 6.5 0 8.6.1z"/></g><path d="M133.6 36.2c1.4-.2 4.7-.5 7.6.2.5.1.9-.1 1.1-.5v-.1c.2-.5 0-1-.4-1.2-1.4-.7-4.4-1.8-8.8-.5-.5.2-.8.7-.6 1.2l.1.2c.1.5.6.8 1 .7z" fill="#726d6e"/><path class="st18" d="M107.2 78.4C91 87.7 85.1 107.6 83 118.9c3.3.9 6.6 1.9 9.9 3l7-3.5c2.5-7.7 11.9-16.4 11.9-16.4l-4.6-23.6z"/><path class="st19" d="M107 107.2l.2-21.1-2.1 23.4z"/><path class="st30" d="M152 108.9h-29.9l2.9 3.5c.3 1.4 5.6 2.5 12 2.5 6.5 0 11.7-1.1 12-2.5l3-3.5z"/><ellipse class="st0" cx="137.1" cy="108.7" rx="16.8" ry="3.8"/><ellipse class="st30" cx="137.1" cy="108" rx="14.4" ry="2.1"/><path class="st31" d="M90.9 118.8s3.6-11.3 8.1-10.1l2.8.6s-.2-2.1-1.5-2.9c-1-.6-8-2.2-13.6 3-1.4 1.3-8.3 8.2-4 14 2.1 2.8 7.5 2.7 9.9 1 3.8-2.7 3.7-3.1 3.7-3.1l-5.4-2.5z"/><path d="M96.6 124.1s-5.8 4.1-10.6-1.3c-2-2.2-1.4-7.2-.1-9 1.9-2.5 5.5-1.2 5.7-1.1.5.3 5 11.4 5 11.4z" fill="#ffb8b8"/><path class="st24" d="M99 108.8s5.5 1.7 11.6.5c0 0 2.4-2.2 2.9-2.4.5-.2 3.4-3.8 6.3-3.6 2.9.2 5.5.9 8.2 0 2.7-.9 2 1.5 1.3 2.2-.7.7-2.6 2.8-5.9 2-3.3-.7-1.4 1.9-1.4 1.9s2.6 2.2 3.3 2.6c.7.4 6.3 3 8.2 2.9 0 0-.7 1.9-2.8 2.3 0 0-.6 2-3.5 1.7 0 0-2.9 3.3-6.6 1.9 0 0-4.5-1.9-5.2-1.9s-17.5 6.2-24.6 5.5c-7-.6-10.4-17.1 8.2-15.6z"/><path class="st21" d="M122.1 109.5s-2.8-1.2-.1-2c0 0-1.1.5.1 2zm-6.6 9.5l-4.8-.7 3.5 1.1z"/><g><path class="st21" d="M161.9 88.1l-3.5 6.5 8.7 1.2 4.9-2.7-2.5-3z"/><path class="st33" d="M157.5 97.1c-.5 0-1 0-1.5-.1l.1-1.7c5.2.4 8.1-1.7 9.3-2.9 1.3-1.3 2-3 1.9-4.4-.4-.4-3.2-.3-5.8.4l-.4-1.7c.9-.2 5.5-1.3 7.2-.1.4.3.7.7.8 1.2.2 1.9-.7 4.1-2.3 5.8-1.4 1.4-4.3 3.5-9.3 3.5z"/><path d="M162.6 84.3h-26.2s-.1 10.1 7.4 14.6v.8c0 .3.2.6.5.8.7.2 2.2.6 5.2.6s4.5-.3 5.2-.6c.3-.1.5-.4.5-.8v-.8c7.5-4.6 7.4-14.6 7.4-14.6z" fill="#f4f4f4"/><path class="st33" d="M136.7 87.9c.7 3.3 2.4 8.2 7 10.9v.8c0 .3.2.6.5.8.7.2 2.2.6 5.2.6s4.5-.3 5.2-.6c.3-.1.5-.4.5-.8v-.8c2.3-1.4 3.9-3.3 5-5.3-9.7 4.5-20-2.9-23.4-5.6z"/><ellipse class="st0" cx="149.4" cy="84.3" rx="13.1" ry="1.2"/><ellipse class="st30" cx="149.4" cy="84.2" rx="12.1" ry=".7"/><path class="st31" d="M177.9 113.6s4-7.1 9.5-7.9c3.7-.5 9.4 3.4 11.2 9.4.9 3 1.5 7-1.3 10.4-8.5 10.6-18.2-2.3-18.9-5.7-.8-3.2-.5-6.2-.5-6.2z"/><path class="st24" d="M158.9 94.3s-1.4.6-1.9 2.4c0 0 .2 5 3.6 6 0 0-.7 2 2.1 2.8 0 0 1.9.7 2.9.9 0 0 .7 1.7 3 1.6 0 0 2.1-.3 2.8-.8 0 0 1.5.8 1.7 1.5.2.7 3.6 15.4 12.9 19 9.3 3.6 11.7-5.5 10.5-10.1-1.2-4.5-2-6.8-8.3-9.3-6.3-2.5-12.4-13.6-13.6-16.9-1.2-3.3-1.8-4-4.3-4.4-2.5-.4-7.6-.6-8.3.2s-.8 3.4.3 3.7c1.2.3 5 1 5 1s1.1.5.2.8c-.8.3-2.3-.1-3.9.1-1.4.4-2.8 1-4.7 1.5z"/></g><g><path class="st16" d="M19.3 69.5c-1.6.6-2.9.5-3.8-.3-.5-.5-.9-1.1-1-2 0-.1 0-.2-.1-.4 0 0 0 .1-.1.1-.4.8-.8 1.6-1.3 2.3-.4.7-.9 1.4-1.4 2-.5.6-1.1 1.1-1.6 1.4-.3.2-.6.3-.9.5-.8.3-1.6.3-2.4 0-.7-.3-1.3-.8-1.7-1.4-.4-.6-.6-1.4-.7-2.2 0-.8.1-1.7.3-2.7.2-.9.6-1.9 1-3 .4-1 .9-2.1 1.4-3.2.5-1.1 1-2.1 1.6-3.2.7-1.4 1.3-2.8 2-4.2.6-1.3 1.1-2.6 1.4-3.7.5-1.9.7-3.6.6-4.8-.1-1.1-.6-1.8-1.2-2.1-.4-.1-.9-.1-1.4.1-.2.1-.4.2-.7.3-.9.5-1.8 1.4-2.7 2.5-.7.9-1.3 1.9-1.9 3.1-.6 1.2-1.1 2.4-1.5 3.6-.4 1.2-.6 2.3-.8 3.4-.1 1 0 1.9.2 2.5.4 1 1.2 1.3 2.5.9h.1c.3 0 .5 0 .7.1.2.2.3.4.3.8-.1.5-.2.8-.4 1.1-.2.2-.4.4-.7.5-.1 0-.1 0-.2.1-.7.2-1.3.2-1.8.2s-1-.2-1.3-.4c-.4-.2-.7-.4-.9-.7-.2-.3-.4-.6-.5-.9-.3-.9-.5-2-.3-3.4.1-1.3.4-2.7.8-4.1.4-1.4 1-2.8 1.7-4.2.7-1.4 1.5-2.6 2.3-3.7 1.2-1.6 2.5-2.7 3.8-3.5.3-.2.6-.3.9-.4 1-.4 2-.5 2.8-.2.3.1.6.3 1 .6s.7.9 1 1.6c.3.7.4 1.6.3 2.8 0 1.1-.3 2.6-.7 4.3-.3 1.3-.8 2.6-1.5 4.1-.7 1.4-1.4 2.9-2.1 4.3-.8 1.5-1.5 3-2.1 4.4-.6 1.4-1.1 2.7-1.4 3.9-.3 1.1-.4 2.1-.2 2.9.1.7.6 1.3 1.4 1.6.3.1.6.1.9 0 .1 0 .2-.1.3-.2.5-.3 1-.9 1.6-1.8.6-.9 1.2-2 1.7-3.1.6-1.2 1.1-2.4 1.5-3.6.5-1.2.9-2.4 1.2-3.4.1-.5.3-1 .4-1.5.1-.4.2-.6.2-.7.1-.4.3-.6.6-.8.1-.1.3-.2.4-.2.2-.1.3-.1.5-.1.7.1.9.6.7 1.3 0 0-.1.2-.2.6-.1.4-.3.9-.5 1.5-.2.7-.4 1.5-.6 2.4-.2.9-.3 1.7-.3 2.5-.1.8 0 1.5.1 2.1.1.6.3 1 .6 1.2.4.4 1 .4 1.8.1.3-.1.7-.3 1.1-.5 1.1-.5 2.1-1.4 3.1-2.5 1-1.2 2-2.6 2.8-4.1.9-1.6 1.7-3.2 2.3-5 .7-1.8 1.3-3.5 1.7-5.2.3-1.4.6-2.7.8-4 .2-1.2.3-2.4.3-3.3 0-.9-.1-1.8-.3-2.4-.2-.6-.4-1-.7-1.3-.2-.1-.3-.4-.3-.7 0-.3.1-.6.4-.9.2-.2.4-.4.7-.5h.1c.3-.1.6 0 .8.2.6.5 1.1 1.3 1.3 2.3.2.9.4 2 .4 3.2 0 1.2-.1 2.5-.3 3.8-.2 1.3-.5 2.6-.8 3.8-.4 1.7-1 3.5-1.7 5.4-.7 1.9-1.6 3.7-2.5 5.4-1 1.7-2.1 3.3-3.3 4.7-1.3 1.4-2.6 2.5-4.1 3.3-.3.1-.5.2-.7.3-.3.3-.6.4-.8.4zm16.4-6.6c-1.4.4-2.5.2-3.3-.6-.7-.6-1.1-1.6-1.2-2.9-.1-.8 0-1.7.1-2.6.1-.9.4-1.9.7-2.9 0-.1.1-.3.1-.4.3-1 .8-2 1.3-3.1.5-1 1.1-2 1.8-2.9.7-.9 1.4-1.7 2.2-2.3.8-.6 1.7-1.1 2.5-1.3.8-.2 1.5-.1 2.1.3.6.4 1 1.2 1.1 2.3.1 1.3-.2 2.6-1 3.8-.2.3-.4.6-.7 1-.3.4-.6.7-1 1.1-.4.4-.8.7-1.3 1.1-.5.4-1.1.7-1.7 1-.6.3-1.1.5-1.6.6-.3.1-.6.1-.9.2H34l-.3 1.5c-.1.7-.1 1.3-.1 1.9.1.8.3 1.3.6 1.6.3.3.8.4 1.4.2.9-.2 1.8-.6 2.6-1.1.8-.5 1.5-1.1 2.2-1.7.7-.6 1.3-1.3 1.8-2s1-1.5 1.4-2.2c.4-.7.8-1.4 1.1-2 .3-.6.6-1.2.8-1.7.1-.3.4-.6.7-.7.1-.1.2-.1.3-.1.2 0 .4 0 .6.1.3.1.5.3.6.6.1.3.1.6 0 .9-.2.5-.5 1.1-.8 1.8-.3.7-.7 1.5-1.2 2.3-.5.8-1 1.6-1.6 2.5-.6.8-1.3 1.6-2.1 2.4-.8.8-1.7 1.4-2.7 2-1.3.5-2.4 1-3.6 1.3zm-1-10h.3c.1 0 .3 0 .5-.1.3-.1.7-.2 1.2-.5 1-.5 1.8-1 2.3-1.5.6-.6 1-1.1 1.2-1.5.4-.7.6-1.5.6-2.3 0-.6-.2-.8-.2-.8h-.4c-.5.1-1 .4-1.6.8-.6.4-1.1 1-1.6 1.7s-1 1.4-1.4 2.3c-.4.6-.7 1.3-.9 1.9zM71.8 58c-.1 0-.1 0 0 0-.7 0-1.1-.4-1.2-1 0 0 0-.4-.1-.9-.1-.6-.2-1.4-.4-2.4s-.4-2.1-.7-3.3c-.2-.9-.5-1.7-.8-2.6-.4.6-.8 1.1-1.2 1.7-.6.8-1.2 1.7-1.9 2.6-1.8 2.5-3.6 4.4-5.4 5.7-1.3 1-2.6 1.6-3.8 1.8-.5.1-1 .1-1.5.1-.9-.1-1.6-.4-2.2-.9-.6-.5-1-1.2-1.3-2-.2-.6-.2-1.3-.2-2.1s.2-1.6.6-2.5c.3-.9.8-1.8 1.5-2.8.6-1 1.5-2 2.5-3 1.8-1.8 3.4-3 4.7-3.7.7-.3 1.3-.5 1.9-.6.7-.1 1.3 0 1.9.2.7.3 1.2.7 1.6 1.3.3.5.6 1.1.7 1.6.1.5.2.9.3 1.3.3-.3.5-.7.8-1-.3-.6-.6-1.3-.9-1.8-.4-.7-.8-1.3-1.3-1.8-.2-.2-.3-.5-.3-.9 0-.3.2-.6.4-.8.2-.2.4-.3.7-.3h.2c.3 0 .6.2.8.4.5.6.9 1.2 1.3 1.9.2.4.5.8.7 1.2 1.1-1.5 2.2-3 3.3-4.4 1.3-1.7 2.5-3.3 3.7-4.7 1.2-1.5 2.2-2.8 3.2-4 1-1.2 1.8-2.3 2.5-3.1.7-.9 1.3-1.6 1.7-2.1.4-.5.6-.8.7-.8.2-.3.5-.4.8-.4.2 0 .5.1.7.2.5.4.6 1 .4 1.5v.1c-.1.1-.2.5-.5 1-.4.7-.8 1.6-1.4 2.8-.6 1.2-1.3 2.6-2 4.1-.8 1.6-1.5 3.2-2.3 4.9-.8 1.8-1.6 3.6-2.4 5.3-.8 1.8-1.5 3.6-2.1 5.2-.6 1.7-1.2 3.2-1.6 4.7-.6 1.1-.9 2.3-1 3.3-.1.6-.5 1-1 1h-.1zm-9.3-13.8c-.3 0-.6.2-1 .3-.5.2-1.1.6-1.8 1.1-.7.5-1.5 1.2-2.4 2.1-.9.8-1.6 1.7-2.1 2.5s-.9 1.6-1.2 2.3c-.3.7-.4 1.3-.5 1.8 0 .5 0 1 .1 1.4.3.9.8 1.3 1.6 1.4h.8c.9-.2 1.9-.6 2.9-1.4 1.5-1.1 3.1-2.8 4.6-5 .6-.8 1.1-1.6 1.7-2.4-.2 0-.3-.1-.5-.3-.2-.1-.3-.4-.3-.8v-.5c0-.3-.1-.6-.2-.9-.1-.3-.2-.7-.4-1-.1-.3-.3-.4-.6-.5-.2-.1-.4-.1-.6-.1h-.1zm7.8 1.2c.5 1.4 1 2.8 1.3 4.2.1.6.3 1.1.4 1.6.2-.5.3-1 .5-1.5.5-1.4 1.1-2.8 1.7-4.3.6-1.5 1.3-3 1.9-4.5.7-1.5 1.3-3 2-4.5.4-1 .9-1.9 1.3-2.8-.8.9-1.5 1.9-2.3 2.8-1.1 1.4-2.3 2.9-3.5 4.5-1 1.4-2.2 3-3.3 4.5z"/><path class="st16" d="M84.4 55.3c-.8 0-1.4-.4-1.8-1.1-.3-.5-.5-1.3-.5-2.2 0-.8.1-1.8.4-2.8.3-1 .6-2 1.1-3.1.5-1.1 1-2.1 1.6-3.2.4-.7.7-1.2.9-1.6.2-.4.3-.7.3-1v-.5c-.1-.1-.4-.2-1-.3H85c-.6 0-1.3.2-2.1.5-.2.6-.6 1.2-.9 2l-1.2 2.4c-.1.2-.2.4-.3.7-.1.3-.3.5-.4.7-.1.3-.4.5-.7.6h-.2c-.2 0-.4 0-.6-.2-.3-.1-.5-.4-.6-.7-.1-.3-.1-.7.1-1 .1-.1.2-.4.3-.6.1-.3.3-.5.3-.7.3-.7.7-1.4 1.1-2.2.2-.4.4-.7.6-1.1-.6-.2-1.1-.4-1.4-.7-.4-.4-.7-.8-.9-1.3-.1-.4-.1-.9-.1-1.3.1-.4.2-.8.4-1.2.2-.4.4-.7.7-1.1l.8-.8c.5-.4 1.1-.7 1.6-.8.1 0 .3-.1.4-.1.4 0 .8.1 1.1.3.8.5 1.1 1.4.9 2.8-.1.5-.1 1-.2 1.4v.1c.1 0 .3-.1.4-.1.3 0 .5-.1.8-.1h.8c.5 0 1 .2 1.4.3.5.2.9.5 1.2.9.5.6.7 1.5.4 2.5-.2.9-.7 2-1.5 3.3-.6 1-1.1 2-1.5 3-.4 1-.7 1.9-.9 2.7-.2.8-.3 1.5-.3 2.1 0 .5 0 .7.1.9 0 0 .1 0 .3-.1.2-.1.5-.3.8-.7.3-.3.7-.8 1.2-1.4.5-.6 1-1.5 1.6-2.5.6-1 1.3-2.3 2-3.8.2-.3.4-.5.6-.5h.3c.2 0 .4.1.6.2.3.1.5.4.6.7.1.3.1.6 0 .9-.6 1.1-1.2 2.3-1.8 3.4-.6 1.1-1.3 2.2-2 3.1-.7.9-1.4 1.7-2 2.3-.8.7-1.6 1-2.4 1 .1 0 .1 0 0 0zm-2.7-20c-.1.1-.2.1-.3.2-.3.3-.6.6-.9 1-.1.2-.3.6-.2.8 0 0 .1.3.9.5.2-.7.3-1.5.5-2.4v-.1z"/><path class="st16" d="M94.1 55.2c-1.4 0-2.5-.5-3.3-1.4-.7-.8-1.1-1.9-1.2-3.2-.1-.8 0-1.7.1-2.6.1-.9.4-1.8.7-2.7 0-.1.1-.3.1-.4.3-.9.8-1.8 1.3-2.7.5-.9 1.1-1.7 1.8-2.4s1.4-1.3 2.1-1.7c.8-.4 1.6-.6 2.5-.6.8 0 1.5.3 2 .8.6.6 1 1.5 1 2.6.1 1.4-.2 2.6-.9 3.6-.2.3-.4.5-.7.8-.3.3-.6.6-1 .8-.4.3-.8.5-1.3.7-.5.2-1.1.4-1.7.5-.6.1-1.1.2-1.6.2-.3 0-.6 0-.9-.1-.3-.1-.6-.2-.9-.2l-.3 1.5c-.1.7-.1 1.3-.1 1.9.1.8.3 1.4.6 1.8.3.4.8.6 1.4.6.9 0 1.8-.1 2.5-.4.8-.3 1.5-.7 2.2-1.1.7-.5 1.2-1 1.8-1.6.5-.6 1-1.2 1.4-1.8.4-.6.8-1.2 1-1.7.3-.6.6-1 .8-1.5.1-.3.4-.5.6-.5h.3c.2 0 .4.1.6.2.3.2.5.4.6.7.1.3.1.6 0 .9l-.8 1.6c-.3.6-.7 1.3-1.2 1.9-.5.7-1 1.4-1.6 2-.6.7-1.3 1.3-2.1 1.8s-1.7 1-2.6 1.3c-1 .2-2.1.4-3.2.4zm-1-10.2c.1 0 .2.1.3.1.1 0 .3.1.5.1.3 0 .7-.1 1.2-.2 1-.2 1.7-.5 2.3-.9.5-.4 1-.8 1.2-1.2.4-.6.6-1.3.6-2.1 0-.6-.2-.8-.2-.9-.1-.1-.2-.1-.4-.1-.5 0-1 .1-1.5.4-.6.3-1.1.7-1.6 1.2s-1 1.2-1.4 1.9c-.5.5-.8 1.1-1 1.7zm-77 63.4c-1 .4-2 .4-2.8.2-.7-.2-1.2-.6-1.6-1.1-.4-.5-.7-1.1-.9-1.9-.2-1-.2-2.1 0-3.2.2-1.2.7-2.3 1.3-3.5.5-.9 1.1-1.7 1.7-2.3.6-.6 1.2-1.1 1.8-1.4l1.2-.6c.2-.1.3-.1.5-.1.5-.1 1-.2 1.4-.2H20c.1 0 .1 0 .2.1.3.1.5.3.5.5.1.3.1.6-.1.9v.2c-.2.3-.4.5-.7.7-.1 0-.2.1-.2.1-.2.1-.4.1-.6 0-.1 0-.3 0-.6-.1-.3 0-.7 0-1.1.2h-.1c-.4.1-.9.4-1.4.8-.6.4-1.1 1.1-1.7 2.1-.5.8-.8 1.7-1 2.5-.2.8-.2 1.6 0 2.2.2.9.7 1.5 1.4 1.7.4.1.9.1 1.4-.1.3-.1.6-.2.9-.4.8-.4 1.5-1 2.1-1.8.6-.8 1.1-1.6 1.5-2.6.6-1.7 1.3-3.3 1.9-4.9.5-1.3 1-2.5 1.5-3.7-.4.1-.8.1-1.1.2-.7.1-1.4.1-2.1.1-.7-.1-1.3-.2-1.8-.4-.6-.2-1.1-.6-1.5-1.1-1.7-2-1-5.8 2.1-11.1 1.2-2.1 2.4-3.8 3.5-4.9 1.1-1.2 2-2 2.9-2.5.5-.3 1.1-.6 1.5-.7.3-.1.6-.1.9-.2h1.5c1 .1 1.7.6 2 1.4.3.7.4 1.6.3 2.7-.1 1.1-.4 2.3-.9 3.8-.4 1.4-1 3-1.7 4.7-.5 1.3-1.1 2.8-1.7 4.3.9-.5 1.8-1 2.6-1.7 1-.8 1.9-1.5 2.6-2.3.7-.7 1.6-1.6 2.5-2.7v-.1h.1l4.5-12.9c.1-.4.4-.6.6-.8.1-.1.3-.1.4-.2h.6c.3.1.5.3.6.5.1.3.1.6 0 .9-3.8 10.8-7.6 21.6-11.4 32.6-.2.5-.5.9-1 1h-.4c-.4 0-.6-.2-.7-.5-.1-.3-.1-.6 0-.9 1.7-5 3.5-10 5.2-14.9-.5.4-1 .9-1.5 1.3-.7.5-1.4 1.1-2.1 1.6-.8.5-1.5 1-2.3 1.3-.4.2-.9.4-1.4.6-.1.1-.1.2-.1.3-.6 1.5-1.3 3-1.9 4.6-.6 1.6-1.3 3.2-1.9 4.8-.5 1.3-1.2 2.5-2 3.5-.9 1.1-1.8 1.9-2.9 2.5-.2.1-.5.3-.7.4-.7.3-.9.4-1.1.5zm11.2-33.8c-.3.1-.7.3-1.1.5-.4.2-.9.6-1.4 1.1-.5.5-1.1 1.2-1.7 2-.6.8-1.3 1.8-2 3-1.3 2.2-2.1 4-2.4 5.4-.3 1.4-.2 2.3.3 3 .3.3.6.5 1 .7.4.1 1 .2 1.5.2.6 0 1.2 0 1.8-.1l1.5-.3c.7-1.7 1.4-3.5 2.1-5.1.7-1.7 1.3-3.3 1.7-4.7.4-1.4.8-2.5.9-3.5.1-.9.1-1.5-.1-1.9-.1-.2-.3-.3-.6-.4h-.7c-.2-.1-.5 0-.8.1zM41 99.2c-1.4.3-2.5.1-3.3-.6-.7-.6-1.1-1.6-1.2-2.9-.1-.8 0-1.7.1-2.6.1-.9.4-1.9.7-2.9 0-.1.1-.3.1-.4.3-1 .8-2 1.3-3s1.1-2 1.8-2.8c.7-.9 1.4-1.6 2.2-2.2.8-.6 1.7-1 2.5-1.2.8-.2 1.5-.1 2.1.3.6.4 1 1.2 1.1 2.4.1 1.3-.2 2.6-1 3.8-.2.3-.4.6-.7 1-.3.4-.6.7-1 1.1-.4.4-.8.7-1.3 1.1-.5.4-1.1.7-1.7 1-.6.3-1.1.4-1.6.6-.3.1-.6.1-.9.1h-.9l-.3 1.5c-.1.7-.1 1.3-.1 1.9.1.8.3 1.4.6 1.6.3.3.8.4 1.4.2.9-.2 1.8-.6 2.6-1 .8-.5 1.5-1 2.2-1.6.7-.6 1.3-1.3 1.8-2s1-1.4 1.4-2.1c.4-.7.8-1.4 1.1-2l.8-1.6c.1-.3.4-.5.7-.7.1 0 .2-.1.3-.1.2 0 .4 0 .6.1.3.1.5.3.6.6.1.3.1.6 0 .9-.2.5-.5 1.1-.8 1.8-.3.7-.7 1.4-1.2 2.2-.5.8-1 1.6-1.6 2.4-.6.8-1.3 1.6-2.1 2.3-.8.7-1.7 1.4-2.7 2-1.4.1-2.5.6-3.6.8zm-1.1-9.9h.3c.1 0 .3 0 .5-.1.3-.1.7-.2 1.2-.4 1-.4 1.8-.9 2.3-1.5.6-.6 1-1.1 1.2-1.5.4-.7.6-1.4.6-2.2 0-.6-.2-.8-.2-.8h-.4c-.5.1-1 .4-1.6.8-.6.4-1.1 1-1.6 1.6-.5.7-1 1.4-1.4 2.2-.3.6-.6 1.3-.9 1.9z"/><path class="st16" d="M57.2 95.9c-.8.1-1.4-.2-1.8-.9-.3-.5-.5-1.2-.5-2.1 0-.8.1-1.8.4-2.8.3-1 .6-2.1 1.1-3.3.5-1.1 1-2.3 1.7-3.4.4-.7.7-1.3.9-1.7.2-.4.3-.8.3-1v-.5c-.1-.1-.4-.2-1-.2h-.4c-.6.1-1.3.3-2.2.7-.2.6-.6 1.3-.9 2.1-.4.8-.8 1.7-1.2 2.6-.1.2-.2.4-.3.7-.1.3-.3.6-.4.8-.1.3-.4.5-.7.7-.1 0-.2.1-.2.1-.2 0-.4 0-.6-.1-.3-.1-.5-.3-.6-.6-.1-.3-.1-.7.1-1 .1-.1.2-.4.3-.7.1-.3.3-.6.3-.8.3-.7.7-1.5 1.1-2.3.2-.4.4-.8.6-1.1-.6-.1-1.1-.3-1.5-.6-.4-.4-.7-.8-.9-1.2-.1-.4-.1-.9-.1-1.3.1-.4.2-.8.4-1.3.2-.4.4-.8.7-1.1.3-.3.6-.7.9-1 .5-.5 1.1-.8 1.6-1 .1-.1.3-.1.4-.1.4-.1.8 0 1.1.1.8.4 1.1 1.3.9 2.7-.1.5-.1 1-.2 1.4v.2c.1 0 .3-.1.4-.1.3-.1.5-.1.8-.2.3 0 .5-.1.8-.1.5 0 1 0 1.4.2.5.1.9.4 1.2.8.5.6.7 1.4.5 2.4-.2.9-.7 2.1-1.5 3.5-.6 1.1-1.1 2.1-1.6 3.2-.4 1-.7 2-.9 2.8-.2.8-.3 1.5-.3 2.1 0 .5 0 .7.1.9 0 0 .1 0 .3-.2.2-.1.5-.4.8-.8.3-.4.7-.9 1.2-1.6.5-.7 1-1.6 1.6-2.7.6-1.1 1.3-2.5 2.1-4 .2-.3.4-.5.7-.6.1 0 .2-.1.3-.1.2 0 .4 0 .6.1.3.1.5.3.6.6.1.3.1.6 0 .9l-1.8 3.6c-.7 1.2-1.3 2.3-2 3.3s-1.4 1.8-2.1 2.5c-.9.9-1.7 1.4-2.5 1.5.1 0 .1 0 0 0zm-2.7-19.7c-.1.1-.2.1-.3.3-.3.3-.6.7-.9 1.1-.1.3-.3.6-.2.8 0 0 .1.3.9.4.2-.7.4-1.5.5-2.5v-.1z"/><path class="st16" d="M67 94.5c-1.4.2-2.5-.2-3.3-1-.7-.7-1.1-1.8-1.2-3.1-.1-.8 0-1.7.1-2.6.1-.9.4-1.8.7-2.8 0-.1.1-.3.1-.4.3-1 .8-1.9 1.3-2.9s1.1-1.9 1.8-2.6c.7-.8 1.4-1.5 2.2-2 .8-.5 1.7-.9 2.5-.9.8-.1 1.5.1 2.1.6.6.5 1 1.4 1.1 2.5.1 1.3-.2 2.6-1 3.7-.2.3-.4.6-.7.9l-1 1c-.4.3-.8.6-1.3.9-.5.3-1.1.5-1.7.8-.6.2-1.1.3-1.6.4-.3 0-.6.1-.9 0-.3 0-.7-.1-.9-.1l-.3 1.5c-.1.7-.1 1.3-.1 1.9.1.8.3 1.4.6 1.7.3.4.8.5 1.4.4.9-.1 1.8-.4 2.6-.7.8-.4 1.5-.9 2.2-1.4.7-.5 1.3-1.1 1.8-1.8s1-1.3 1.4-2c.4-.7.8-1.3 1.1-1.9.3-.6.6-1.1.8-1.5.1-.3.4-.5.6-.6.1 0 .2-.1.3-.1.2 0 .4 0 .6.1.3.1.5.4.6.7.1.3.1.6 0 .9-.2.5-.5 1-.8 1.7-.3.7-.7 1.4-1.2 2.1-.5.7-1 1.5-1.6 2.2-.6.7-1.3 1.4-2.1 2.1-.8.6-1.7 1.2-2.7 1.6-1.3.3-2.4.6-3.5.7zm-1.1-10h.8c.3 0 .7-.1 1.2-.3 1-.3 1.8-.7 2.3-1.2.6-.5 1-.9 1.2-1.4.4-.7.6-1.4.6-2.2 0-.6-.2-.8-.2-.9-.1-.1-.2-.1-.4-.1-.5.1-1 .3-1.6.6-.6.4-1.1.9-1.6 1.4-.5.6-1 1.3-1.4 2.1-.3.7-.6 1.3-.9 2zm13 8.6c-.3 0-.6-.1-.9-.3-.2-.2-.4-.5-.4-.8 0-.4.1-.8.2-1.3.2-.4.4-.8.7-1.2.1-.1.1-.2.1-.2v-.1c-.1-.3 0-.6.2-.9.2-.3.4-.4.7-.5h.2c.3 0 .5.1.7.2.2.2.4.4.4.6v.8c0 .5-.2 1-.6 1.5-.2.3-.3.5-.4.7-.1.1-.1.2-.1.3 0 .3-.1.6-.3.8.1.2-.2.3-.5.4zm3.3-8.5c-.3 0-.5 0-.7-.2-.2-.1-.4-.4-.5-.6-.1-.3-.1-.6 0-.9 3.2-6.6 6.3-13 9.5-19.5.2-.3.4-.5.6-.5h.3c.2 0 .4.1.6.2.3.2.5.4.6.7.1.3.1.6 0 .9-3.1 6.3-6.3 12.8-9.4 19.3-.2.4-.6.6-1 .6z"/></g><g><path class="st0" d="M142.8 82.5h-.1c-.2-.1-.2-.2-.2-.4 0 0 .6-1.5 0-2.9-.8-1.7 0-2.5.1-2.5.1-.1.3-.1.4 0 .1.1.1.3 0 .4 0 0-.5.6.1 1.9.7 1.6 0 3.3 0 3.4-.1 0-.2.1-.3.1zm2.2 0h-.1c-.2-.1-.2-.2-.2-.4 0 0 .6-1.5 0-2.9-.8-1.7 0-2.5.1-2.5.1-.1.3-.1.4 0 .1.1.1.3 0 .4 0 0-.5.6.1 1.9.7 1.6 0 3.3 0 3.4-.1 0-.2.1-.3.1zm2.1 0h-.1c-.2-.1-.2-.2-.2-.4 0 0 .6-1.5 0-2.9-.8-1.7 0-2.5.1-2.5.1-.1.3-.1.4 0 .1.1.1.3 0 .4 0 0-.5.6.1 1.9.7 1.6 0 3.3 0 3.4 0 0-.2.1-.3.1z"/></g></g></svg>